<?xml version="1.0" encoding="UTF-8"?>
<!--Generator: Apple Native CoreSVG 175.5-->
<!DOCTYPE svg
PUBLIC "-//W3C//DTD SVG 1.1//EN"
       "http://www.w3.org/Graphics/SVG/1.1/DTD/svg11.dtd">
<svg version="1.1" xmlns="http://www.w3.org/2000/svg" xmlns:xlink="http://www.w3.org/1999/xlink" width="3300" height="2200">
 <!--glyph: "uni1008F3.medium", point size: 100.0, font version: "18.0d12e2", template writer version: "101"-->
 <style>.monochrome-0 {fill:#000000}
.monochrome-1 {fill:#000000}

.hierarchical-0:secondary {fill:#4D4D4D}
.hierarchical-1:primary {fill:#212121}

.SFSymbolsPreview212121 {fill:#212121;opacity:1.0}
.SFSymbolsPreview4D4D4D {fill:#4D4D4D;opacity:1.0}
</style>
 <g id="Notes">
  <rect height="2200" id="artboard" style="fill:white;opacity:1" width="3300" x="0" y="0"/>
  <line style="fill:none;stroke:black;opacity:1;stroke-width:0.5;" x1="263" x2="3036" y1="292" y2="292"/>
  <text style="stroke:none;fill:black;font-family:sans-serif;font-size:13;font-weight:bold;" transform="matrix(1 0 0 1 263 322)">Weight/Scale Variations</text>
  <text style="stroke:none;fill:black;font-family:sans-serif;font-size:13;text-anchor:middle;" transform="matrix(1 0 0 1 559.711 322)">Ultralight</text>
  <text style="stroke:none;fill:black;font-family:sans-serif;font-size:13;text-anchor:middle;" transform="matrix(1 0 0 1 856.422 322)">Thin</text>
  <text style="stroke:none;fill:black;font-family:sans-serif;font-size:13;text-anchor:middle;" transform="matrix(1 0 0 1 1153.13 322)">Light</text>
  <text style="stroke:none;fill:black;font-family:sans-serif;font-size:13;text-anchor:middle;" transform="matrix(1 0 0 1 1449.84 322)">Regular</text>
  <text style="stroke:none;fill:black;font-family:sans-serif;font-size:13;text-anchor:middle;" transform="matrix(1 0 0 1 1746.56 322)">Medium</text>
  <text style="stroke:none;fill:black;font-family:sans-serif;font-size:13;text-anchor:middle;" transform="matrix(1 0 0 1 2043.27 322)">Semibold</text>
  <text style="stroke:none;fill:black;font-family:sans-serif;font-size:13;text-anchor:middle;" transform="matrix(1 0 0 1 2339.98 322)">Bold</text>
  <text style="stroke:none;fill:black;font-family:sans-serif;font-size:13;text-anchor:middle;" transform="matrix(1 0 0 1 2636.69 322)">Heavy</text>
  <text style="stroke:none;fill:black;font-family:sans-serif;font-size:13;text-anchor:middle;" transform="matrix(1 0 0 1 2933.4 322)">Black</text>
  <line style="fill:none;stroke:black;opacity:1;stroke-width:0.5;" x1="263" x2="3036" y1="1903" y2="1903"/>
  <g transform="matrix(1 0 0 1 263 1933)">
   <path d="M9.24805 0.830078C13.5547 0.830078 17.1387-2.74414 17.1387-7.05078C17.1387-11.3574 13.5449-14.9316 9.23828-14.9316C4.94141-14.9316 1.36719-11.3574 1.36719-7.05078C1.36719-2.74414 4.95117 0.830078 9.24805 0.830078ZM9.24805-0.654297C5.70312-0.654297 2.87109-3.49609 2.87109-7.05078C2.87109-10.6055 5.69336-13.4473 9.23828-13.4473C12.793-13.4473 15.6445-10.6055 15.6445-7.05078C15.6445-3.49609 12.8027-0.654297 9.24805-0.654297ZM5.6543-7.05078C5.6543-6.62109 5.95703-6.32812 6.40625-6.32812L8.50586-6.32812L8.50586-4.20898C8.50586-3.76953 8.79883-3.4668 9.22852-3.4668C9.67773-3.4668 9.9707-3.76953 9.9707-4.20898L9.9707-6.32812L12.0898-6.32812C12.5293-6.32812 12.832-6.62109 12.832-7.05078C12.832-7.49023 12.5293-7.79297 12.0898-7.79297L9.9707-7.79297L9.9707-9.90234C9.9707-10.3516 9.67773-10.6543 9.22852-10.6543C8.79883-10.6543 8.50586-10.3516 8.50586-9.90234L8.50586-7.79297L6.40625-7.79297C5.95703-7.79297 5.6543-7.49023 5.6543-7.05078Z"/>
  </g>
  <g transform="matrix(1 0 0 1 281.867 1933)">
   <path d="M11.709 2.91016C17.1582 2.91016 21.6699-1.61133 21.6699-7.05078C21.6699-12.5 17.1484-17.0117 11.6992-17.0117C6.25977-17.0117 1.74805-12.5 1.74805-7.05078C1.74805-1.61133 6.26953 2.91016 11.709 2.91016ZM11.709 1.25C7.09961 1.25 3.41797-2.44141 3.41797-7.05078C3.41797-11.6602 7.08984-15.3516 11.6992-15.3516C16.3086-15.3516 20.0098-11.6602 20.0098-7.05078C20.0098-2.44141 16.3184 1.25 11.709 1.25ZM7.17773-7.05078C7.17773-6.57227 7.50977-6.25 8.00781-6.25L10.8789-6.25L10.8789-3.36914C10.8789-2.88086 11.2109-2.53906 11.6895-2.53906C12.1777-2.53906 12.5195-2.87109 12.5195-3.36914L12.5195-6.25L15.4004-6.25C15.8887-6.25 16.2305-6.57227 16.2305-7.05078C16.2305-7.53906 15.8887-7.88086 15.4004-7.88086L12.5195-7.88086L12.5195-10.752C12.5195-11.25 12.1777-11.5918 11.6895-11.5918C11.2109-11.5918 10.8789-11.25 10.8789-10.752L10.8789-7.88086L8.00781-7.88086C7.50977-7.88086 7.17773-7.53906 7.17773-7.05078Z"/>
  </g>
  <g transform="matrix(1 0 0 1 305.646 1933)">
   <path d="M14.9707 5.66406C21.9336 5.66406 27.6953-0.0976562 27.6953-7.05078C27.6953-14.0137 21.9238-19.7754 14.9609-19.7754C8.00781-19.7754 2.25586-14.0137 2.25586-7.05078C2.25586-0.0976562 8.01758 5.66406 14.9707 5.66406ZM14.9707 3.84766C8.93555 3.84766 4.08203-1.01562 4.08203-7.05078C4.08203-13.0957 8.92578-17.9492 14.9609-17.9492C21.0059-17.9492 25.8691-13.0957 25.8691-7.05078C25.8691-1.01562 21.0156 3.84766 14.9707 3.84766ZM9.19922-7.05078C9.19922-6.5332 9.57031-6.17188 10.1172-6.17188L14.0625-6.17188L14.0625-2.2168C14.0625-1.67969 14.4336-1.29883 14.9512-1.29883C15.4883-1.29883 15.8594-1.66992 15.8594-2.2168L15.8594-6.17188L19.8145-6.17188C20.3516-6.17188 20.7324-6.5332 20.7324-7.05078C20.7324-7.59766 20.3613-7.96875 19.8145-7.96875L15.8594-7.96875L15.8594-11.9141C15.8594-12.4609 15.4883-12.8418 14.9512-12.8418C14.4336-12.8418 14.0625-12.4609 14.0625-11.9141L14.0625-7.96875L10.1172-7.96875C9.57031-7.96875 9.19922-7.59766 9.19922-7.05078Z"/>
  </g>
  <text style="stroke:none;fill:black;font-family:sans-serif;font-size:13;font-weight:bold;" transform="matrix(1 0 0 1 263 1953)">Design Variations</text>
  <text style="stroke:none;fill:black;font-family:sans-serif;font-size:13;" transform="matrix(1 0 0 1 263 1971)">Symbols are supported in up to nine weights and three scales.</text>
  <text style="stroke:none;fill:black;font-family:sans-serif;font-size:13;" transform="matrix(1 0 0 1 263 1989)">For optimal layout with text and other symbols, vertically align</text>
  <text style="stroke:none;fill:black;font-family:sans-serif;font-size:13;" transform="matrix(1 0 0 1 263 2007)">symbols with the adjacent text.</text>
  <line style="fill:none;stroke:#00AEEF;stroke-width:0.5;opacity:1.0;" x1="776" x2="776" y1="1919" y2="1933"/>
  <g transform="matrix(1 0 0 1 776 1933)">
   <path d="M3.31055 0.15625C3.82812 0.15625 4.08203-0.0390625 4.26758-0.585938L5.52734-4.0332L11.2891-4.0332L12.5488-0.585938C12.7344-0.0390625 12.9883 0.15625 13.4961 0.15625C14.0137 0.15625 14.3457-0.15625 14.3457-0.644531C14.3457-0.810547 14.3164-0.966797 14.2383-1.17188L9.6582-13.3691C9.43359-13.9648 9.0332-14.2676 8.4082-14.2676C7.80273-14.2676 7.39258-13.9746 7.17773-13.3789L2.59766-1.16211C2.51953-0.957031 2.49023-0.800781 2.49023-0.634766C2.49023-0.146484 2.80273 0.15625 3.31055 0.15625ZM6.00586-5.51758L8.37891-12.0898L8.42773-12.0898L10.8008-5.51758Z"/>
  </g>
  <line style="fill:none;stroke:#00AEEF;stroke-width:0.5;opacity:1.0;" x1="793.197" x2="793.197" y1="1919" y2="1933"/>
  <text style="stroke:none;fill:black;font-family:sans-serif;font-size:13;font-weight:bold;" transform="matrix(1 0 0 1 776 1953)">Margins</text>
  <text style="stroke:none;fill:black;font-family:sans-serif;font-size:13;" transform="matrix(1 0 0 1 776 1971)">Leading and trailing margins on the left and right side of each symbol</text>
  <text style="stroke:none;fill:black;font-family:sans-serif;font-size:13;" transform="matrix(1 0 0 1 776 1989)">can be adjusted by modifying the x-location of the margin guidelines.</text>
  <text style="stroke:none;fill:black;font-family:sans-serif;font-size:13;" transform="matrix(1 0 0 1 776 2007)">Modifications are automatically applied proportionally to all</text>
  <text style="stroke:none;fill:black;font-family:sans-serif;font-size:13;" transform="matrix(1 0 0 1 776 2025)">scales and weights.</text>
  <g transform="matrix(1 0 0 1 1289 1933)">
   <path d="M2.8418 1.86523L4.54102 3.57422C5.40039 4.44336 6.38672 4.38477 7.31445 3.35938L18.0078-8.42773L17.041-9.4043L6.42578 2.27539C6.07422 2.67578 5.74219 2.77344 5.27344 2.30469L4.10156 1.14258C3.63281 0.683594 3.74023 0.341797 4.14062-0.0195312L15.6152-10.8203L14.6387-11.7871L3.04688-0.898438C2.06055 0.0195312 1.98242 0.996094 2.8418 1.86523ZM9.25781-16.3281C8.83789-15.918 8.80859-15.3418 9.04297-14.9512C9.27734-14.5898 9.73633-14.3555 10.3809-14.5215C11.8457-14.8633 13.3691-14.9219 14.7949-13.9844L14.209-12.5293C13.8672-11.6992 14.043-11.1133 14.5801-10.5664L16.875-8.25195C17.3633-7.76367 17.7734-7.74414 18.3398-7.8418L19.4043-8.03711L20.0684-7.36328L20.0293-6.80664C19.9902-6.30859 20.1172-5.92773 20.6055-5.44922L21.3672-4.70703C21.8457-4.22852 22.4609-4.19922 22.9297-4.66797L25.8398-7.58789C26.3086-8.05664 26.2891-8.65234 25.8105-9.13086L25.0391-9.89258C24.5605-10.3711 24.1895-10.5273 23.7109-10.4883L23.1348-10.4395L22.4902-11.0742L22.7344-12.1973C22.8613-12.7637 22.7051-13.2031 22.1191-13.7891L19.9219-15.9766C16.582-19.2969 12.1484-19.2188 9.25781-16.3281ZM10.752-15.957C13.1836-17.7344 16.4746-17.4316 18.7012-15.2051L21.1328-12.793C21.3672-12.5586 21.4062-12.373 21.3379-12.0312L21.0156-10.5469L22.5195-9.0625L23.5059-9.12109C23.7598-9.13086 23.8379-9.11133 24.0332-8.91602L24.6094-8.33984L22.168-5.89844L21.5918-6.47461C21.3965-6.66992 21.3672-6.74805 21.377-7.01172L21.4453-7.98828L19.9512-9.47266L18.4277-9.21875C18.1055-9.15039 17.959-9.17969 17.7148-9.41406L15.7129-11.416C15.459-11.6504 15.4297-11.8164 15.5859-12.1875L16.4648-14.2773C14.9023-15.7324 12.8711-16.3574 10.8398-15.7617C10.6836-15.7227 10.625-15.8496 10.752-15.957Z"/>
  </g>
  <text style="stroke:none;fill:black;font-family:sans-serif;font-size:13;font-weight:bold;" transform="matrix(1 0 0 1 1289 1953)">Exporting</text>
  <text style="stroke:none;fill:black;font-family:sans-serif;font-size:13;" transform="matrix(1 0 0 1 1289 1971)">Symbols should be outlined when exporting to ensure the</text>
  <text style="stroke:none;fill:black;font-family:sans-serif;font-size:13;" transform="matrix(1 0 0 1 1289 1989)">design is preserved when submitting to Xcode.</text>
  <text id="template-version" style="stroke:none;fill:black;font-family:sans-serif;font-size:13;text-anchor:end;" transform="matrix(1 0 0 1 3036 1933)">Template v.4.0</text>
  <text style="stroke:none;fill:black;font-family:sans-serif;font-size:13;text-anchor:end;" transform="matrix(1 0 0 1 3036 1951)">Requires Xcode 14 or greater</text>
  <text id="descriptive-name" style="stroke:none;fill:black;font-family:sans-serif;font-size:13;text-anchor:end;" transform="matrix(1 0 0 1 3036 1969)">Generated from lasso.and.sparkles</text>
  <text style="stroke:none;fill:black;font-family:sans-serif;font-size:13;text-anchor:end;" transform="matrix(1 0 0 1 3036 1987)">Typeset at 100 points</text>
  <text style="stroke:none;fill:black;font-family:sans-serif;font-size:13;" transform="matrix(1 0 0 1 263 726)">Small</text>
  <text style="stroke:none;fill:black;font-family:sans-serif;font-size:13;" transform="matrix(1 0 0 1 263 1156)">Medium</text>
  <text style="stroke:none;fill:black;font-family:sans-serif;font-size:13;" transform="matrix(1 0 0 1 263 1586)">Large</text>
 </g>
 <g id="Guides">
  <g id="H-reference" style="fill:#27AAE1;stroke:none;" transform="matrix(1 0 0 1 339 696)">
   <path d="M0.993654 0L3.63775 0L29.3281-67.1323L30.0303-67.1323L30.0303-70.459L28.1226-70.459ZM11.6885-24.4799L46.9815-24.4799L46.2315-26.7285L12.4385-26.7285ZM55.1196 0L57.7637 0L30.6382-70.459L29.4326-70.459L29.4326-67.1323Z"/>
  </g>
  <line id="Baseline-S" style="fill:none;stroke:#27AAE1;opacity:1;stroke-width:0.5;" x1="263" x2="3036" y1="696" y2="696"/>
  <line id="Capline-S" style="fill:none;stroke:#27AAE1;opacity:1;stroke-width:0.5;" x1="263" x2="3036" y1="625.541" y2="625.541"/>
  <g id="H-reference" style="fill:#27AAE1;stroke:none;" transform="matrix(1 0 0 1 339 1126)">
   <path d="M0.993654 0L3.63775 0L29.3281-67.1323L30.0303-67.1323L30.0303-70.459L28.1226-70.459ZM11.6885-24.4799L46.9815-24.4799L46.2315-26.7285L12.4385-26.7285ZM55.1196 0L57.7637 0L30.6382-70.459L29.4326-70.459L29.4326-67.1323Z"/>
  </g>
  <line id="Baseline-M" style="fill:none;stroke:#27AAE1;opacity:1;stroke-width:0.5;" x1="263" x2="3036" y1="1126" y2="1126"/>
  <line id="Capline-M" style="fill:none;stroke:#27AAE1;opacity:1;stroke-width:0.5;" x1="263" x2="3036" y1="1055.54" y2="1055.54"/>
  <g id="H-reference" style="fill:#27AAE1;stroke:none;" transform="matrix(1 0 0 1 339 1556)">
   <path d="M0.993654 0L3.63775 0L29.3281-67.1323L30.0303-67.1323L30.0303-70.459L28.1226-70.459ZM11.6885-24.4799L46.9815-24.4799L46.2315-26.7285L12.4385-26.7285ZM55.1196 0L57.7637 0L30.6382-70.459L29.4326-70.459L29.4326-67.1323Z"/>
  </g>
  <line id="Baseline-L" style="fill:none;stroke:#27AAE1;opacity:1;stroke-width:0.5;" x1="263" x2="3036" y1="1556" y2="1556"/>
  <line id="Capline-L" style="fill:none;stroke:#27AAE1;opacity:1;stroke-width:0.5;" x1="263" x2="3036" y1="1485.54" y2="1485.54"/>
  <line id="left-margin-Ultralight-S" style="fill:none;stroke:#FF3B30;stroke-width:0.5;opacity:1.0;" x1="515.84" x2="515.84" y1="600.785" y2="720.121"/>
  <line id="right-margin-Ultralight-S" style="fill:none;stroke:#00AEEF;stroke-width:0.5;opacity:1.0;" x1="603.582" x2="603.582" y1="600.785" y2="720.121"/>
  <line id="left-margin-Regular-S" style="fill:none;stroke:#FF3B30;stroke-width:0.5;opacity:1.0;" x1="1403.07" x2="1403.07" y1="600.785" y2="720.121"/>
  <line id="right-margin-Regular-S" style="fill:none;stroke:#00AEEF;stroke-width:0.5;opacity:1.0;" x1="1496.62" x2="1496.62" y1="600.785" y2="720.121"/>
  <line id="left-margin-Black-S" style="fill:none;stroke:#00AEEF;stroke-width:0.5;opacity:1.0;" x1="2878.08" x2="2878.08" y1="600.785" y2="720.121"/>
  <line id="right-margin-Black-S" style="fill:none;stroke:#00AEEF;stroke-width:0.5;opacity:1.0;" x1="2988.72" x2="2988.72" y1="600.785" y2="720.121"/>
 </g>
 <g id="Symbols">
  <g id="Black-S" transform="matrix(1 0 0 1 2878.08 696)">
   <path class="monochrome-0 hierarchical-0:secondary SFSymbolsPreview4D4D4D" d="M44.7754-73.3887C46.3867-64.3555 46.6797-63.1348 53.0273-62.2559C56.0547-62.793 59.2285-63.0859 62.5488-63.0859C79.8828-63.0859 91.1621-53.6133 91.1621-39.4531C91.1621-27.0996 77.4902-14.8926 63.6719-14.8926C61.6211-14.8926 59.8633-15.7227 59.8633-15.918C59.8633-17.9199 63.623-19.7266 69.1895-19.7266C75.293-19.7266 79.1992-15.5762 79.1992-8.93555C79.1992-5.81055 76.8066-2.14844 72.9492 0.537109C70.6055 2.19727 69.3848 4.05273 69.3848 6.49414C69.3848 9.96094 72.168 12.5 75.7812 12.5C77.2949 12.5 78.5645 12.0605 79.8828 11.1328C87.207 6.29883 91.8457-1.51367 91.8457-8.98438C91.8457-22.9004 82.4219-32.4219 68.6035-32.4219C56.0547-32.4219 47.168-25.7324 47.168-16.0645C47.168-7.86133 53.9062-2.29492 63.6719-2.29492C84.4727-2.29492 103.809-20.0684 103.809-39.4043C103.809-61.1816 87.4512-75.7324 62.5-75.7324C56.1035-75.7324 50.1953-74.9023 44.7754-73.3887ZM59.375-16.4551C57.5195-16.2109 55.6641-16.0645 53.9551-16.0645C37.3535-16.0645 26.7578-23.8281 26.7578-35.8887C26.7578-37.7441 26.9531-39.5508 27.3438-41.3086C25.7812-45.1172 20.7031-45.4102 15.4785-46.3379C14.5996-43.0664 14.1113-39.5996 14.1113-35.9375C14.1113-16.6992 30.2246-3.4668 53.3691-3.4668C56.3965-3.4668 59.7168-3.85742 62.4023-4.00391Z"/>
   <path class="monochrome-1 hierarchical-1:primary SFSymbolsPreview212121" d="M36.8164-33.0078C37.8906-33.0078 38.7695-33.7891 38.916-34.8633C40.7227-48.0469 42.6758-50.1465 55.7617-51.7578C56.9336-51.9043 57.7148-52.832 57.7148-53.9062C57.7148-54.9805 56.9336-55.8594 55.7617-56.0059C43.0176-57.6172 41.2598-59.4238 38.916-72.9004C38.7207-74.0234 37.8906-74.8047 36.8164-74.8047C35.7422-74.8047 34.9121-74.0234 34.7656-72.9004C33.0566-59.668 30.957-57.7148 17.8711-56.0059C16.748-55.8594 15.918-54.9805 15.918-53.9062C15.918-52.832 16.748-51.9531 17.8711-51.7578C30.5176-49.5605 32.3242-48.3398 34.7656-34.8633C34.9609-33.7891 35.791-33.0078 36.8164-33.0078ZM17.4316-60.9375C18.1641-60.9375 18.7988-61.5234 18.8965-62.2559C19.7754-68.75 19.7754-68.75 26.7578-70.0684C27.5391-70.2148 28.0273-70.8008 28.0273-71.5332C28.0273-72.2656 27.4902-72.9004 26.7578-72.998C19.873-73.9258 19.7266-74.0234 18.8965-80.7617C18.7988-81.543 18.2129-82.1289 17.4316-82.1289C16.6504-82.1289 16.0645-81.543 15.9668-80.7617C15.1855-74.3164 15.0879-74.3164 8.10547-72.998C7.32422-72.8516 6.83594-72.2656 6.83594-71.5332C6.83594-70.752 7.32422-70.2148 8.25195-70.0684C15.0391-68.9941 15.1367-68.8477 15.9668-62.3047C16.0645-61.5234 16.6504-60.9375 17.4316-60.9375ZM29.9316-80.127C30.4199-80.127 30.7617-80.4688 30.8594-80.957C31.6406-84.9121 31.6406-84.9121 35.7422-85.791C36.2305-85.8887 36.5234-86.2305 36.5234-86.7188C36.5234-87.207 36.1816-87.5 35.6934-87.5977C31.6406-88.5254 31.6406-88.5254 30.8594-92.4316C30.7617-92.9199 30.4199-93.2617 29.9316-93.2617C29.4434-93.2617 29.1016-92.9199 29.0039-92.3828C28.3203-88.5254 28.3203-88.5254 24.1211-87.5977C23.6328-87.5 23.3398-87.207 23.3398-86.7188C23.3398-86.2305 23.6328-85.9375 24.2188-85.791C28.3203-84.9121 28.3203-84.9121 29.0039-80.957C29.1016-80.4688 29.4434-80.127 29.9316-80.127Z"/>
  </g>
  <g id="Regular-S" transform="matrix(1 0 0 1 1403.07 696)">
   <path class="monochrome-0 hierarchical-0:secondary SFSymbolsPreview4D4D4D" d="M31.6895-66.3086C32.2266-63.1348 32.666-61.2305 33.7891-60.0586C39.1113-62.1582 44.9219-63.3301 50.6348-63.3301C66.4551-63.3301 80.127-53.4668 80.127-38.5742C80.127-24.7559 65.2832-12.9395 51.2695-12.9395C48.6328-12.9395 46.8262-13.9648 46.8262-15.625C46.8262-18.6523 50.8301-20.6543 56.543-20.6543C62.9883-20.6543 67.8223-15.9668 67.8223-9.52148C67.8223-5.12695 65.4785-0.878906 61.5234 1.80664C60.2539 2.68555 59.3262 3.66211 59.3262 5.17578C59.3262 6.83594 60.5957 8.20312 62.6953 8.20312C63.623 8.20312 64.209 7.95898 65.0391 7.42188C70.8496 3.4668 74.4141-2.92969 74.4141-9.57031C74.4141-19.7754 66.2598-27.2949 56.0059-27.2949C46.6309-27.2949 40.1855-22.5098 40.1855-15.3809C40.1855-10.0098 44.6289-6.39648 51.2695-6.39648C68.8477-6.39648 86.7188-20.9961 86.7188-38.5254C86.7188-57.0312 70.2637-69.9219 50.5859-69.9219C44.1406-69.9219 37.6465-68.6035 31.6895-66.3086ZM45.2148-13.7695C44.0918-13.7207 42.9688-13.6719 41.9434-13.6719C26.3672-13.6719 13.4277-20.8984 13.4277-35.2051C13.4277-36.5723 13.5742-37.793 13.8672-39.0137C12.793-40.5762 11.0352-41.1621 7.66602-41.6992C7.12891-39.6484 6.83594-37.5 6.83594-35.2539C6.83594-17.4805 22.2168-7.12891 41.4062-7.12891C43.1641-7.12891 44.9707-7.22656 46.7285-7.37305Z"/>
   <path class="monochrome-1 hierarchical-1:primary SFSymbolsPreview212121" d="M23.6816-29.1016C24.6582-29.1016 25.3418-29.7363 25.5371-30.7129C28.1738-44.043 29.3457-46.0449 42.5781-47.8516C43.6523-47.998 44.3359-48.7305 44.3359-49.707C44.3359-50.6836 43.6523-51.416 42.5781-51.5625C29.3945-53.3691 27.4902-55.3223 25.5371-68.6523C25.3906-69.6777 24.6582-70.3613 23.6816-70.3613C22.8027-70.3613 22.0215-69.7266 21.875-68.7012C19.3359-55.3711 18.0664-53.3691 4.78516-51.5625C3.75977-51.416 3.07617-50.6836 3.07617-49.707C3.07617-48.7305 3.75977-47.998 4.78516-47.8516C18.0176-46.0449 19.9219-44.1406 21.875-30.7617C21.9727-29.7363 22.7051-29.1016 23.6816-29.1016ZM6.39648-57.1289C7.12891-57.1289 7.71484-57.666 7.86133-58.3984C9.27734-65.0879 8.64258-65.0391 15.6738-66.2109C16.4551-66.3086 16.9434-66.9434 16.9434-67.6758C16.9434-68.3594 16.4551-68.9941 15.6738-69.1406C8.64258-70.3613 9.27734-70.3613 7.86133-76.8555C7.71484-77.5879 7.17773-78.1738 6.39648-78.1738C5.66406-78.1738 5.12695-77.6367 4.93164-76.8555C3.51562-70.3613 4.15039-70.3613-2.88086-69.1406C-3.61328-68.9941-4.15039-68.3594-4.15039-67.6758C-4.15039-66.8457-3.61328-66.3086-2.7832-66.2109C4.15039-65.0391 3.51562-65.0879 4.93164-58.4961C5.12695-57.7148 5.61523-57.1289 6.39648-57.1289ZM18.6523-74.8047C19.1406-74.8047 19.5312-75.1465 19.6289-75.6348C20.5078-80.0781 20.2148-79.9805 24.8535-80.8594C25.3906-80.957 25.7324-81.3477 25.7324-81.8359C25.7324-82.3242 25.3906-82.7148 24.8535-82.8125C20.166-83.6914 20.4102-83.6914 19.6289-87.9883C19.5312-88.5254 19.1895-88.916 18.6523-88.916C18.1641-88.916 17.8223-88.5254 17.6758-87.9883C16.6992-83.6914 17.1387-83.6914 12.4512-82.8125C11.9141-82.7148 11.6211-82.3242 11.6211-81.8359C11.6211-81.2988 11.9141-80.957 12.5-80.8594C17.1387-80.127 16.6992-80.0781 17.6758-75.7324C17.8223-75.1465 18.1641-74.8047 18.6523-74.8047Z"/>
  </g>
  <g id="Ultralight-S" transform="matrix(1 0 0 1 515.84 696)">
   <path class="monochrome-0 hierarchical-0:secondary SFSymbolsPreview4D4D4D" d="M28.2837-62.9483C28.4575-62.1358 28.67-61.4575 28.9756-60.876C34.752-63.3843 41.2437-64.7832 47.7285-64.7832C64.5479-64.7832 78.7647-54.375 78.7647-38.3472C78.7647-24.0293 63.1035-11.4409 48.3633-11.4409C45.0908-11.4409 42.376-12.6934 42.376-15.398C42.376-19.4243 48.8775-22.1982 53.6367-22.1982C60.8994-22.1982 66.4146-16.7842 66.4146-9.52148C66.4146-3.85548 62.8902 1.57322 57.1641 4.44041C56.7574 4.68358 56.5108 4.97899 56.5108 5.49365C56.5108 5.97315 56.8267 6.47755 57.6094 6.47755C57.8106 6.47755 58.1241 6.36964 58.3638 6.24122C64.4922 3.05811 68.5562-3.29297 68.5562-9.75195C68.5562-17.9136 62.1729-24.3887 53.5537-24.3887C47.4028-24.3887 40.1855-20.648 40.1855-15.3809C40.1855-11.4629 43.6299-9.2573 48.3633-9.2573C64.3067-9.2573 80.9063-22.5854 80.9063-38.48C80.9063-55.3511 65.7227-67.0156 47.7251-67.0156C41.0528-67.0156 34.2862-65.5611 28.2837-62.9483ZM42.4448-13.1792C40.7769-13.0396 39.1089-12.9453 37.4024-12.9453C21.7354-12.9453 9.02298-20.0357 9.02298-35.2051C9.02298-39.6601 10.3501-43.7871 12.5957-47.4145C11.9302-47.5693 11.126-47.7011 10.2998-47.8295C8.08251-44.0532 6.83594-39.8159 6.83594-35.2539C6.83594-18.7519 20.582-10.8071 37.7281-10.8071C39.5313-10.8071 41.2471-10.9048 42.9141-11.0512Z"/>
   <path class="monochrome-1 hierarchical-1:primary SFSymbolsPreview212121" d="M23.1821-32.2802C23.7046-32.2802 23.9341-32.5517 23.9932-32.938C26.2666-48.5839 26.9844-49.1328 42.124-51.0757C42.5171-51.0859 42.792-51.3642 42.792-51.7959C42.792-52.2275 42.5171-52.5059 42.124-52.5161C26.9878-54.459 26.2188-55.0044 23.9932-70.6504C23.9375-71.04 23.7046-71.3149 23.1821-71.3149C22.6665-71.3149 22.3848-71.0434 22.3291-70.6538C20.0625-55.0078 19.3833-54.459 4.24024-52.5161C3.80518-52.5059 3.53027-52.2275 3.53027-51.7959C3.53027-51.3642 3.80518-51.0859 4.24024-51.0757C19.3799-49.1328 20.1035-48.5908 22.3291-32.9414C22.3813-32.5517 22.6597-32.2802 23.1821-32.2802ZM5.89698-60.8071C6.26612-60.8071 6.44337-61.0263 6.49903-61.3501C7.2339-67.1767 7.18946-68.354 14.2661-69.1172C14.6841-69.1694 14.8545-69.4409 14.8545-69.7646C14.8545-70.0849 14.6841-70.3564 14.2661-70.4121C7.18946-71.1787 7.2339-72.3594 6.49903-78.1724C6.44337-78.4961 6.26954-78.7187 5.89698-78.7187C5.52783-78.7187 5.30859-78.4995 5.24951-78.1724C4.51464-72.3594 4.55908-71.1787-2.51758-70.4121C-2.93213-70.3564-3.06056-70.0849-3.06056-69.7646C-3.06056-69.4341-2.93213-69.1694-2.51074-69.1172C4.55908-68.354 4.51464-67.1767 5.24951-61.3569C5.30859-61.0298 5.52441-60.8071 5.89698-60.8071ZM18.834-77.7109C19.0044-77.7109 19.1226-77.8257 19.1748-78.0415C19.6904-81.9399 19.8062-83.0683 25.1714-84.0835C25.3906-84.1357 25.5054-84.1631 25.5054-84.3789C25.5054-84.5947 25.3906-84.7129 25.1714-84.7651C19.8027-85.7348 19.6836-86.9155 19.1748-90.7583C19.1226-90.9775 19.0078-91.0957 18.834-91.0957C18.6182-91.0957 18.5034-90.9775 18.4477-90.7583C17.9707-86.9155 17.8198-85.7348 12.4512-84.7651C12.2773-84.7129 12.1206-84.5947 12.1206-84.3789C12.1206-84.1596 12.2773-84.1357 12.4546-84.0835C17.8198-83.0786 17.9707-81.9399 18.4477-78.0483C18.5034-77.8257 18.6182-77.7109 18.834-77.7109Z"/>
  </g>
 </g>
</svg>
